<?xml version="1.0" encoding="UTF-8" standalone="no"?>
<!-- Created with Inkscape (http://www.inkscape.org/) -->

<svg
   xmlns:dc="http://purl.org/dc/elements/1.1/"
   xmlns:cc="http://creativecommons.org/ns#"
   xmlns:rdf="http://www.w3.org/1999/02/22-rdf-syntax-ns#"
   xmlns:svg="http://www.w3.org/2000/svg"
   xmlns="http://www.w3.org/2000/svg"
   xmlns:sodipodi="http://sodipodi.sourceforge.net/DTD/sodipodi-0.dtd"
   xmlns:inkscape="http://www.inkscape.org/namespaces/inkscape"
   width="210mm"
   height="297mm"
   viewBox="0 0 210 297"
   version="1.1"
   id="svg8"
   inkscape:version="0.92.3 (2405546, 2018-03-11)"
   sodipodi:docname="logo.svg">
  <defs
     id="defs2" />
  <sodipodi:namedview
     id="base"
     pagecolor="#ffffff"
     bordercolor="#666666"
     borderopacity="1.0"
     inkscape:pageopacity="0.0"
     inkscape:pageshadow="2"
     inkscape:zoom="0.30179021"
     inkscape:cx="90.715694"
     inkscape:cy="804.41002"
     inkscape:document-units="mm"
     inkscape:current-layer="layer1"
     showgrid="false"
     inkscape:snap-text-baseline="true"
     inkscape:window-width="1366"
     inkscape:window-height="715"
     inkscape:window-x="0"
     inkscape:window-y="0"
     inkscape:window-maximized="1" />
  <metadata
     id="metadata5">
    <rdf:RDF>
      <cc:Work
         rdf:about="">
        <dc:format>image/svg+xml</dc:format>
        <dc:type
           rdf:resource="http://purl.org/dc/dcmitype/StillImage" />
        <dc:title />
      </cc:Work>
    </rdf:RDF>
  </metadata>
  <g
     inkscape:label="Layer 1"
     inkscape:groupmode="layer"
     id="layer1">
    <g
       transform="matrix(2.5145769,0,0,2.4645778,-131.03996,-92.773567)"
       id="g31" />
    <g
       id="g830"
       transform="translate(161.9196,173.35454)">
      <path
         sodipodi:nodetypes="csscccsscscccscc"
         style="opacity:0.2"
         d="m 6.0000004,44.352164 v 1.999969 c 0,1.523977 1.2423809,2.647959 2.7811572,2.647959 l 8.0122044,0.0551 16.703546,15.586329 0.109987,-15.758863 21.614947,0.117427 c 1.537955,0.0084 2.777958,-1.123982 2.777958,-2.647959 v -1.999969 c 0,1.523977 -1.240087,2.832569 -2.777958,2.85097 L 32.167431,47.478976 32.387114,62.016604 16.432955,47.071898 8.7817576,47.000123 C 7.2430463,46.985688 6.0006004,45.876141 6.0006004,44.352164 Z"
         id="path2"
         inkscape:connector-curvature="0"
         transform="matrix(2.5145769,0,0,2.4645778,-131.03996,-92.773566)" />
      <path
         sodipodi:nodetypes="sssscccsssss"
         style="fill:#7e42eb;fill-opacity:1"
         d="m 8.7791576,10.000708 c -1.5389763,0 -2.7777572,1.226582 -2.7777572,2.749958 v 32.599498 c 0,1.523477 1.2388609,2.649959 2.7777572,2.649959 l 8.6608714,0.0654 14.947085,13.951084 0.128522,-14.156985 22.706207,0.08975 c 1.537965,0.0061 2.775957,-1.075232 2.775957,-2.599209 V 12.750666 c 0,-1.523376 -1.237981,-2.749958 -2.777958,-2.749958 z"
         id="path4"
         inkscape:connector-curvature="0"
         transform="matrix(2.5145769,0,0,2.4645778,-131.03996,-92.773566)" />
      <path
         style="opacity:0.2;fill:#ffffff"
         d="m 8.7792969,10 c -1.5389763,0 -2.7773438,1.226624 -2.7773438,2.75 v 1.001953 c 0,-1.523376 1.2383675,-2.75 2.7773438,-2.75 H 55.222656 c 1.539977,0 2.777344,1.226624 2.777344,2.75 V 12.75 C 58,11.226624 56.762633,10 55.222656,10 Z"
         id="path6"
         inkscape:connector-curvature="0"
         transform="matrix(2.5145769,0,0,2.4645778,-131.03996,-92.773566)" />
      <flowRoot
         style="font-style:normal;font-variant:normal;font-weight:normal;font-stretch:normal;font-size:192px;line-height:1.25;font-family:'VTKS DURA 3D';-inkscape-font-specification:'VTKS DURA 3D';letter-spacing:0px;word-spacing:0px;fill:#000000;fill-opacity:1;stroke:none"
         id="flowRoot18"
         xml:space="preserve"
         transform="matrix(0.19952509,0,0,0.17646725,-122.23522,-99.81452)"><flowRegion
           style="font-style:normal;font-variant:normal;font-weight:normal;font-stretch:normal;font-family:'VTKS DURA 3D';-inkscape-font-specification:'VTKS DURA 3D'"
           id="flowRegion20"><rect
             style="font-style:normal;font-variant:normal;font-weight:normal;font-stretch:normal;font-family:'VTKS DURA 3D';-inkscape-font-specification:'VTKS DURA 3D'"
             y="340.2789"
             x="86.915642"
             height="309.73727"
             width="908.84515"
             id="rect22" /></flowRegion><flowPara
           style="font-style:normal;font-variant:normal;font-weight:normal;font-stretch:normal;font-family:Regensburg;-inkscape-font-specification:Regensburg"
           id="flowPara24">AnoChat</flowPara></flowRoot>    </g>
  </g>
</svg>
